<svg xmlns="http://www.w3.org/2000/svg" viewBox="0 0 32 32" fill="none">
  <defs>
    <linearGradient id="moonGradient32" x1="0%" y1="0%" x2="100%" y2="100%">
      <stop offset="0%" style="stop-color:#8b5cf6"/>
      <stop offset="100%" style="stop-color:#a855f7"/>
    </linearGradient>
  </defs>
  
  <rect width="32" height="32" rx="6" fill="#1a0f2e"/>
  
  <!-- Crescent moon -->
  <path d="M 19 6 C 16 6 13 9 13 12 C 13 15 16 18 19 18 C 18 18 17 16.5 17 14 C 17 11.5 18 7 19 6 Z" 
        fill="url(#moonGradient32)"/>
  
  <!-- Stars -->
  <circle cx="9" cy="9" r="1" fill="#ffffff" opacity="0.9"/>
  <circle cx="24" cy="12" r="0.7" fill="#ffffff" opacity="0.8"/>
  <circle cx="22" cy="22" r="0.8" fill="#ffffff" opacity="0.85"/>
  <circle cx="9" cy="24" r="0.7" fill="#ffffff" opacity="0.75"/>
  
  <!-- Sparkles -->
  <path d="M 25 8 L 25.3 9 L 26 9.3 L 25.3 9.6 L 25 10.3 L 24.7 9.6 L 24 9.3 L 24.7 9 Z" 
        fill="#ffffff" opacity="0.8"/>
</svg>