<svg xmlns="http://www.w3.org/2000/svg" viewBox="0 0 64 64" fill="none">
  <!-- Background circle with gradient -->
  <defs>
    <linearGradient id="moonGradient" x1="0%" y1="0%" x2="100%" y2="100%">
      <stop offset="0%" style="stop-color:#8b5cf6;stop-opacity:1" />
      <stop offset="100%" style="stop-color:#a855f7;stop-opacity:1" />
    </linearGradient>
    <radialGradient id="glowGradient" cx="50%" cy="50%" r="50%">
      <stop offset="0%" style="stop-color:#8b5cf6;stop-opacity:0.3" />
      <stop offset="100%" style="stop-color:#4b0082;stop-opacity:0.9" />
    </radialGradient>
  </defs>
  
  <!-- Dark background -->
  <circle cx="32" cy="32" r="32" fill="url(#glowGradient)"/>
  
  <!-- Crescent moon -->
  <path d="M 38 12 C 32 12 27 17 27 23 C 27 29 32 34 38 34 C 36 34 34 32.5 34 28.5 C 34 24.5 36 17 38 12 Z" 
        fill="url(#moonGradient)" 
        opacity="0.95"/>
  
  <!-- Moon inner glow -->
  <path d="M 37 14 C 33 14 29 18 29 23 C 29 28 33 32 37 32 C 35.5 32 34.5 30.5 34.5 27.5 C 34.5 24.5 35.5 16 37 14 Z" 
        fill="#ffffff" 
        opacity="0.2"/>
  
  <!-- Stars around -->
  <circle cx="20" cy="18" r="1.5" fill="#ffffff" opacity="0.9">
    <animate attributeName="opacity" values="0.9;0.4;0.9" dur="2s" repeatCount="indefinite"/>
  </circle>
  <circle cx="48" cy="24" r="1" fill="#ffffff" opacity="0.8">
    <animate attributeName="opacity" values="0.8;0.3;0.8" dur="3s" repeatCount="indefinite"/>
  </circle>
  <circle cx="44" cy="44" r="1.2" fill="#ffffff" opacity="0.85">
    <animate attributeName="opacity" values="0.85;0.4;0.85" dur="2.5s" repeatCount="indefinite"/>
  </circle>
  <circle cx="18" cy="48" r="1" fill="#ffffff" opacity="0.75">
    <animate attributeName="opacity" values="0.75;0.3;0.75" dur="3.5s" repeatCount="indefinite"/>
  </circle>
  <circle cx="24" cy="38" r="0.8" fill="#a855f7" opacity="0.9">
    <animate attributeName="opacity" values="0.9;0.4;0.9" dur="2.2s" repeatCount="indefinite"/>
  </circle>
  
  <!-- Sparkle effect -->
  <path d="M 50 16 L 50.5 17.5 L 52 18 L 50.5 18.5 L 50 20 L 49.5 18.5 L 48 18 L 49.5 17.5 Z" 
        fill="#ffffff" 
        opacity="0.8">
    <animate attributeName="opacity" values="0.8;0.2;0.8" dur="2s" repeatCount="indefinite"/>
  </path>
  <path d="M 16 32 L 16.5 33.5 L 18 34 L 16.5 34.5 L 16 36 L 15.5 34.5 L 14 34 L 15.5 33.5 Z" 
        fill="#a855f7" 
        opacity="0.7">
    <animate attributeName="opacity" values="0.7;0.2;0.7" dur="2.8s" repeatCount="indefinite"/>
  </path>
</svg>